STARTFONT 2.1
FONT -Monotype-Gill Sans-Regular-R-Normal--12-120-72-72-P-51-iso8859-1
SIZE 12 72 72
FONTBOUNDINGBOX 14 15 -1 -3

STARTPROPERTIES 22
FOUNDRY "Monotype"
FAMILY_NAME "Gill Sans"
WEIGHT_NAME "Regular"
SLANT "R"
SETWIDTH_NAME "Normal"
ADD_STYLE_NAME ""
PIXEL_SIZE 12
POINT_SIZE 120
RESOLUTION_X 72
RESOLUTION_Y 72
SPACING "P"
AVERAGE_WIDTH 51
CHARSET_REGISTRY "iso8859"
CHARSET_ENCODING "1"
COPYRIGHT "Copyright (c) 1996 Monotype Typography Ltd."
CAP_HEIGHT 10
X_HEIGHT 6
WEIGHT 10
QUAD_WIDTH 8
DEFAULT_CHAR 32
FONT_DESCENT 3
FONT_ASCENT 12
ENDPROPERTIES

CHARS 191

STARTCHAR space
ENCODING 32
SWIDTH 278 0
DWIDTH 4 0
BBX 0 0 0 0
BITMAP
ENDCHAR

STARTCHAR exclam
ENCODING 33
SWIDTH 271 0
DWIDTH 4 0
BBX 1 9 1 0
BITMAP
80
80
80
80
80
80
80
00
80
ENDCHAR

STARTCHAR quotedbl
ENCODING 34
SWIDTH 354 0
DWIDTH 5 0
BBX 3 3 1 6
BITMAP
A0
A0
A0
ENDCHAR

STARTCHAR numbersign
ENCODING 35
SWIDTH 584 0
DWIDTH 8 0
BBX 8 9 0 0
BITMAP
12
12
FF
24
24
24
FF
48
48
ENDCHAR

STARTCHAR dollar
ENCODING 36
SWIDTH 542 0
DWIDTH 7 0
BBX 5 10 1 -1
BITMAP
20
70
A8
A0
60
30
28
A8
70
20
ENDCHAR

STARTCHAR percent
ENCODING 37
SWIDTH 680 0
DWIDTH 9 0
BBX 7 9 1 0
BITMAP
42
A4
A8
48
10
24
2A
4A
84
ENDCHAR

STARTCHAR ampersand
ENCODING 38
SWIDTH 625 0
DWIDTH 8 0
BBX 7 9 1 0
BITMAP
30
48
48
30
52
8C
88
8C
76
ENDCHAR

STARTCHAR quoteright
ENCODING 39
SWIDTH 219 0
DWIDTH 3 0
BBX 2 3 0 6
BITMAP
40
40
80
ENDCHAR

STARTCHAR parenleft
ENCODING 40
SWIDTH 323 0
DWIDTH 4 0
BBX 3 12 1 -3
BITMAP
20
40
40
80
80
80
80
80
80
40
40
20
ENDCHAR

STARTCHAR parenright
ENCODING 41
SWIDTH 323 0
DWIDTH 4 0
BBX 3 12 0 -3
BITMAP
80
40
40
20
20
20
20
20
20
40
40
80
ENDCHAR

STARTCHAR asterisk
ENCODING 42
SWIDTH 417 0
DWIDTH 5 0
BBX 5 5 0 4
BITMAP
20
A8
70
A8
20
ENDCHAR

STARTCHAR plus
ENCODING 43
SWIDTH 584 0
DWIDTH 8 0
BBX 7 7 0 1
BITMAP
10
10
10
FE
10
10
10
ENDCHAR

STARTCHAR comma
ENCODING 44
SWIDTH 219 0
DWIDTH 3 0
BBX 2 3 0 -1
BITMAP
40
40
80
ENDCHAR

STARTCHAR minus
ENCODING 45
SWIDTH 584 0
DWIDTH 8 0
BBX 6 1 1 4
BITMAP
FC
ENDCHAR

STARTCHAR period
ENCODING 46
SWIDTH 219 0
DWIDTH 3 0
BBX 1 2 1 0
BITMAP
80
80
ENDCHAR

STARTCHAR slash
ENCODING 47
SWIDTH 281 0
DWIDTH 4 0
BBX 4 9 0 0
BITMAP
10
10
20
20
20
40
40
80
80
ENDCHAR

STARTCHAR zero
ENCODING 48
SWIDTH 500 0
DWIDTH 7 0
BBX 5 9 1 0
BITMAP
70
88
88
88
88
88
88
88
70
ENDCHAR

STARTCHAR one
ENCODING 49
SWIDTH 500 0
DWIDTH 7 0
BBX 1 9 3 0
BITMAP
80
80
80
80
80
80
80
80
80
ENDCHAR

STARTCHAR two
ENCODING 50
SWIDTH 500 0
DWIDTH 7 0
BBX 5 9 1 0
BITMAP
70
88
08
08
10
20
40
80
F8
ENDCHAR

STARTCHAR three
ENCODING 51
SWIDTH 500 0
DWIDTH 7 0
BBX 5 9 1 0
BITMAP
30
48
08
08
30
08
08
88
70
ENDCHAR

STARTCHAR four
ENCODING 52
SWIDTH 500 0
DWIDTH 7 0
BBX 6 9 0 0
BITMAP
08
08
18
28
48
FC
08
08
08
ENDCHAR

STARTCHAR five
ENCODING 53
SWIDTH 500 0
DWIDTH 7 0
BBX 6 9 0 0
BITMAP
78
40
40
70
48
04
04
88
70
ENDCHAR

STARTCHAR six
ENCODING 54
SWIDTH 500 0
DWIDTH 7 0
BBX 5 9 1 0
BITMAP
18
20
40
80
F0
88
88
88
70
ENDCHAR

STARTCHAR seven
ENCODING 55
SWIDTH 500 0
DWIDTH 7 0
BBX 5 9 1 0
BITMAP
F8
08
10
10
20
20
40
40
40
ENDCHAR

STARTCHAR eight
ENCODING 56
SWIDTH 500 0
DWIDTH 7 0
BBX 5 9 1 0
BITMAP
70
88
88
88
70
88
88
88
70
ENDCHAR

STARTCHAR nine
ENCODING 57
SWIDTH 500 0
DWIDTH 7 0
BBX 5 9 1 0
BITMAP
70
88
88
88
78
08
10
20
C0
ENDCHAR

STARTCHAR colon
ENCODING 58
SWIDTH 219 0
DWIDTH 3 0
BBX 1 7 1 0
BITMAP
80
80
00
00
00
80
80
ENDCHAR

STARTCHAR semicolon
ENCODING 59
SWIDTH 219 0
DWIDTH 3 0
BBX 2 7 0 -1
BITMAP
40
40
00
00
40
40
80
ENDCHAR

STARTCHAR less
ENCODING 60
SWIDTH 584 0
DWIDTH 8 0
BBX 8 7 0 1
BITMAP
03
0C
30
C0
30
0C
03
ENDCHAR

STARTCHAR equal
ENCODING 61
SWIDTH 584 0
DWIDTH 8 0
BBX 6 4 1 3
BITMAP
FC
00
00
FC
ENDCHAR

STARTCHAR greater
ENCODING 62
SWIDTH 584 0
DWIDTH 8 0
BBX 8 7 0 1
BITMAP
C0
30
0C
03
0C
30
C0
ENDCHAR

STARTCHAR question
ENCODING 63
SWIDTH 333 0
DWIDTH 4 0
BBX 3 9 0 0
BITMAP
40
A0
20
20
40
40
40
00
40
ENDCHAR

STARTCHAR at
ENCODING 64
SWIDTH 1010 0
DWIDTH 13 0
BBX 11 12 1 -3
BITMAP
1F00
2080
4640
8920
9120
9220
9220
9240
8D80
4020
20C0
1F00
ENDCHAR

STARTCHAR A
ENCODING 65
SWIDTH 667 0
DWIDTH 9 0
BBX 9 9 0 0
BITMAP
0800
0800
1400
1400
2200
3E00
4100
4100
8080
ENDCHAR

STARTCHAR B
ENCODING 66
SWIDTH 563 0
DWIDTH 7 0
BBX 6 9 0 0
BITMAP
F0
88
88
88
F8
84
84
84
F8
ENDCHAR

STARTCHAR C
ENCODING 67
SWIDTH 708 0
DWIDTH 9 0
BBX 6 9 1 0
BITMAP
38
44
80
80
80
80
80
44
38
ENDCHAR

STARTCHAR D
ENCODING 68
SWIDTH 750 0
DWIDTH 10 0
BBX 7 9 1 0
BITMAP
F8
84
82
82
82
82
82
84
F8
ENDCHAR

STARTCHAR E
ENCODING 69
SWIDTH 500 0
DWIDTH 7 0
BBX 5 9 1 0
BITMAP
F8
80
80
80
F8
80
80
80
F8
ENDCHAR

STARTCHAR F
ENCODING 70
SWIDTH 469 0
DWIDTH 6 0
BBX 4 9 1 0
BITMAP
F0
80
80
80
F0
80
80
80
80
ENDCHAR

STARTCHAR G
ENCODING 71
SWIDTH 740 0
DWIDTH 10 0
BBX 7 9 1 0
BITMAP
3C
42
80
80
80
8E
82
42
3C
ENDCHAR

STARTCHAR H
ENCODING 72
SWIDTH 729 0
DWIDTH 9 0
BBX 6 9 1 0
BITMAP
84
84
84
84
FC
84
84
84
84
ENDCHAR

STARTCHAR I
ENCODING 73
SWIDTH 250 0
DWIDTH 3 0
BBX 1 9 1 0
BITMAP
80
80
80
80
80
80
80
80
80
ENDCHAR

STARTCHAR J
ENCODING 74
SWIDTH 250 0
DWIDTH 3 0
BBX 2 12 0 -3
BITMAP
40
40
40
40
40
40
40
40
40
40
40
80
ENDCHAR

STARTCHAR K
ENCODING 75
SWIDTH 656 0
DWIDTH 9 0
BBX 6 9 1 0
BITMAP
84
88
90
A0
C0
A0
90
88
84
ENDCHAR

STARTCHAR L
ENCODING 76
SWIDTH 490 0
DWIDTH 6 0
BBX 4 9 1 0
BITMAP
80
80
80
80
80
80
80
80
F0
ENDCHAR

STARTCHAR M
ENCODING 77
SWIDTH 781 0
DWIDTH 10 0
BBX 7 9 1 0
BITMAP
82
C6
AA
92
82
82
82
82
82
ENDCHAR

STARTCHAR N
ENCODING 78
SWIDTH 781 0
DWIDTH 10 0
BBX 7 9 1 0
BITMAP
82
C2
A2
A2
92
92
8A
86
82
ENDCHAR

STARTCHAR O
ENCODING 79
SWIDTH 823 0
DWIDTH 11 0
BBX 8 9 1 0
BITMAP
3C
42
81
81
81
81
81
42
3C
ENDCHAR

STARTCHAR P
ENCODING 80
SWIDTH 510 0
DWIDTH 7 0
BBX 5 9 1 0
BITMAP
F0
88
88
88
F0
80
80
80
80
ENDCHAR

STARTCHAR Q
ENCODING 81
SWIDTH 823 0
DWIDTH 11 0
BBX 8 11 1 -2
BITMAP
3C
42
81
81
81
81
81
42
3C
18
07
ENDCHAR

STARTCHAR R
ENCODING 82
SWIDTH 604 0
DWIDTH 8 0
BBX 6 9 1 0
BITMAP
F0
88
88
88
F0
90
88
88
84
ENDCHAR

STARTCHAR S
ENCODING 83
SWIDTH 458 0
DWIDTH 6 0
BBX 5 9 0 0
BITMAP
70
88
80
40
20
10
08
88
70
ENDCHAR

STARTCHAR T
ENCODING 84
SWIDTH 604 0
DWIDTH 8 0
BBX 7 9 0 0
BITMAP
FE
10
10
10
10
10
10
10
10
ENDCHAR

STARTCHAR U
ENCODING 85
SWIDTH 708 0
DWIDTH 9 0
BBX 6 9 1 0
BITMAP
84
84
84
84
84
84
84
84
78
ENDCHAR

STARTCHAR V
ENCODING 86
SWIDTH 604 0
DWIDTH 8 0
BBX 7 9 0 0
BITMAP
82
82
44
44
28
28
28
10
10
ENDCHAR

STARTCHAR W
ENCODING 87
SWIDTH 1042 0
DWIDTH 14 0
BBX 13 9 0 0
BITMAP
8208
8208
4510
4510
4510
28A0
28A0
1040
1040
ENDCHAR

STARTCHAR X
ENCODING 88
SWIDTH 708 0
DWIDTH 9 0
BBX 7 9 1 0
BITMAP
82
44
44
28
10
28
44
44
82
ENDCHAR

STARTCHAR Y
ENCODING 89
SWIDTH 604 0
DWIDTH 8 0
BBX 7 9 0 0
BITMAP
82
44
44
28
28
10
10
10
10
ENDCHAR

STARTCHAR Z
ENCODING 90
SWIDTH 646 0
DWIDTH 8 0
BBX 6 9 1 0
BITMAP
FC
04
08
10
10
20
40
80
FC
ENDCHAR

STARTCHAR bracketleft
ENCODING 91
SWIDTH 333 0
DWIDTH 4 0
BBX 3 12 1 -3
BITMAP
E0
80
80
80
80
80
80
80
80
80
80
E0
ENDCHAR

STARTCHAR backslash
ENCODING 92
SWIDTH 281 0
DWIDTH 4 0
BBX 4 9 0 0
BITMAP
80
40
40
40
20
20
20
10
10
ENDCHAR

STARTCHAR bracketright
ENCODING 93
SWIDTH 333 0
DWIDTH 4 0
BBX 3 12 0 -3
BITMAP
E0
20
20
20
20
20
20
20
20
20
20
E0
ENDCHAR

STARTCHAR asciicircum
ENCODING 94
SWIDTH 469 0
DWIDTH 6 0
BBX 6 4 0 4
BITMAP
10
30
48
84
ENDCHAR

STARTCHAR underscore
ENCODING 95
SWIDTH 500 0
DWIDTH 7 0
BBX 7 1 0 -2
BITMAP
FE
ENDCHAR

STARTCHAR quoteleft
ENCODING 96
SWIDTH 219 0
DWIDTH 3 0
BBX 2 3 1 7
BITMAP
40
80
80
ENDCHAR

STARTCHAR a
ENCODING 97
SWIDTH 427 0
DWIDTH 6 0
BBX 5 6 1 0
BITMAP
60
10
70
90
90
68
ENDCHAR

STARTCHAR b
ENCODING 98
SWIDTH 500 0
DWIDTH 7 0
BBX 5 9 1 0
BITMAP
80
80
80
B0
C8
88
88
88
F0
ENDCHAR

STARTCHAR c
ENCODING 99
SWIDTH 438 0
DWIDTH 6 0
BBX 5 6 0 0
BITMAP
70
88
80
80
88
70
ENDCHAR

STARTCHAR d
ENCODING 100
SWIDTH 510 0
DWIDTH 7 0
BBX 5 9 1 0
BITMAP
08
08
08
78
88
88
88
88
78
ENDCHAR

STARTCHAR e
ENCODING 101
SWIDTH 479 0
DWIDTH 6 0
BBX 5 6 0 0
BITMAP
70
88
F8
80
88
70
ENDCHAR

STARTCHAR f
ENCODING 102
SWIDTH 250 0
DWIDTH 3 0
BBX 3 9 0 0
BITMAP
20
40
40
E0
40
40
40
40
40
ENDCHAR

STARTCHAR g
ENCODING 103
SWIDTH 427 0
DWIDTH 6 0
BBX 6 9 0 -3
BITMAP
34
48
48
30
40
70
88
88
70
ENDCHAR

STARTCHAR h
ENCODING 104
SWIDTH 500 0
DWIDTH 7 0
BBX 5 9 1 0
BITMAP
80
80
80
B0
C8
88
88
88
88
ENDCHAR

STARTCHAR i
ENCODING 105
SWIDTH 219 0
DWIDTH 3 0
BBX 1 8 1 0
BITMAP
80
00
80
80
80
80
80
80
ENDCHAR

STARTCHAR j
ENCODING 106
SWIDTH 219 0
DWIDTH 3 0
BBX 2 11 0 -3
BITMAP
40
00
40
40
40
40
40
40
40
40
80
ENDCHAR

STARTCHAR k
ENCODING 107
SWIDTH 479 0
DWIDTH 6 0
BBX 5 9 1 0
BITMAP
80
80
80
88
90
E0
A0
90
88
ENDCHAR

STARTCHAR l
ENCODING 108
SWIDTH 219 0
DWIDTH 3 0
BBX 1 9 1 0
BITMAP
80
80
80
80
80
80
80
80
80
ENDCHAR

STARTCHAR m
ENCODING 109
SWIDTH 771 0
DWIDTH 10 0
BBX 9 6 0 0
BITMAP
B300
CC80
8880
8880
8880
8880
ENDCHAR

STARTCHAR n
ENCODING 110
SWIDTH 500 0
DWIDTH 7 0
BBX 5 6 1 0
BITMAP
B0
C8
88
88
88
88
ENDCHAR

STARTCHAR o
ENCODING 111
SWIDTH 552 0
DWIDTH 7 0
BBX 5 6 1 0
BITMAP
70
88
88
88
88
70
ENDCHAR

STARTCHAR p
ENCODING 112
SWIDTH 500 0
DWIDTH 7 0
BBX 5 9 1 -3
BITMAP
F0
88
88
88
C8
B0
80
80
80
ENDCHAR

STARTCHAR q
ENCODING 113
SWIDTH 500 0
DWIDTH 7 0
BBX 5 9 1 -3
BITMAP
78
88
88
88
98
68
08
08
08
ENDCHAR

STARTCHAR r
ENCODING 114
SWIDTH 396 0
DWIDTH 5 0
BBX 4 6 1 0
BITMAP
B0
C0
80
80
80
80
ENDCHAR

STARTCHAR s
ENCODING 115
SWIDTH 385 0
DWIDTH 5 0
BBX 4 6 0 0
BITMAP
70
80
40
20
10
E0
ENDCHAR

STARTCHAR t
ENCODING 116
SWIDTH 333 0
DWIDTH 4 0
BBX 3 7 0 0
BITMAP
40
E0
40
40
40
40
20
ENDCHAR

STARTCHAR u
ENCODING 117
SWIDTH 500 0
DWIDTH 7 0
BBX 5 6 1 0
BITMAP
88
88
88
88
98
68
ENDCHAR

STARTCHAR v
ENCODING 118
SWIDTH 438 0
DWIDTH 6 0
BBX 5 6 0 0
BITMAP
88
88
50
50
20
20
ENDCHAR

STARTCHAR w
ENCODING 119
SWIDTH 719 0
DWIDTH 9 0
BBX 9 6 0 0
BITMAP
8880
8880
5500
5500
2200
2200
ENDCHAR

STARTCHAR x
ENCODING 120
SWIDTH 500 0
DWIDTH 7 0
BBX 6 6 0 0
BITMAP
84
48
30
30
48
84
ENDCHAR

STARTCHAR y
ENCODING 121
SWIDTH 438 0
DWIDTH 6 0
BBX 5 9 0 -3
BITMAP
88
88
50
50
20
20
20
40
40
ENDCHAR

STARTCHAR z
ENCODING 122
SWIDTH 417 0
DWIDTH 5 0
BBX 4 6 0 0
BITMAP
F0
10
20
40
80
F0
ENDCHAR

STARTCHAR braceleft
ENCODING 123
SWIDTH 333 0
DWIDTH 4 0
BBX 3 12 1 -3
BITMAP
20
40
40
40
40
80
40
40
40
40
40
20
ENDCHAR

STARTCHAR bar
ENCODING 124
SWIDTH 260 0
DWIDTH 3 0
BBX 1 12 1 -3
BITMAP
80
80
80
80
80
80
80
80
80
80
80
80
ENDCHAR

STARTCHAR braceright
ENCODING 125
SWIDTH 333 0
DWIDTH 4 0
BBX 3 12 1 -3
BITMAP
80
40
40
40
40
20
40
40
40
40
40
80
ENDCHAR

STARTCHAR asciitilde
ENCODING 126
SWIDTH 584 0
DWIDTH 8 0
BBX 8 2 0 2
BITMAP
71
8E
ENDCHAR

STARTCHAR space
ENCODING 160
SWIDTH 278 0
DWIDTH 4 0
BBX 0 0 0 0
BITMAP
ENDCHAR

STARTCHAR exclamdown
ENCODING 161
SWIDTH 271 0
DWIDTH 4 0
BBX 1 9 1 -3
BITMAP
80
00
80
80
80
80
80
80
80
ENDCHAR

STARTCHAR cent
ENCODING 162
SWIDTH 438 0
DWIDTH 6 0
BBX 5 10 1 -2
BITMAP
08
18
70
98
A0
A0
C8
70
40
80
ENDCHAR

STARTCHAR sterling
ENCODING 163
SWIDTH 531 0
DWIDTH 7 0
BBX 5 9 1 0
BITMAP
18
20
20
20
F0
40
40
40
F8
ENDCHAR

STARTCHAR currency
ENCODING 164
SWIDTH 552 0
DWIDTH 7 0
BBX 5 5 1 2
BITMAP
A8
50
88
50
A8
ENDCHAR

STARTCHAR yen
ENCODING 165
SWIDTH 552 0
DWIDTH 7 0
BBX 7 9 0 0
BITMAP
82
44
44
28
FE
10
FE
10
10
ENDCHAR

STARTCHAR brokenbar
ENCODING 166
SWIDTH 260 0
DWIDTH 3 0
BBX 1 12 1 -3
BITMAP
80
80
80
80
80
00
00
80
80
80
80
80
ENDCHAR

STARTCHAR section
ENCODING 167
SWIDTH 406 0
DWIDTH 5 0
BBX 3 11 1 -3
BITMAP
60
80
80
40
A0
A0
A0
40
20
20
C0
ENDCHAR

STARTCHAR dieresis
ENCODING 168
SWIDTH 333 0
DWIDTH 4 0
BBX 3 2 0 6
BITMAP
A0
A0
ENDCHAR

STARTCHAR copyright
ENCODING 169
SWIDTH 740 0
DWIDTH 10 0
BBX 9 9 0 0
BITMAP
3E00
4100
9C80
A280
A080
A280
9C80
4100
3E00
ENDCHAR

STARTCHAR ordfeminine
ENCODING 170
SWIDTH 281 0
DWIDTH 4 0
BBX 4 4 0 5
BITMAP
C0
20
E0
B0
ENDCHAR

STARTCHAR guillemotleft
ENCODING 171
SWIDTH 490 0
DWIDTH 6 0
BBX 6 7 0 0
BITMAP
14
28
50
A0
50
28
14
ENDCHAR

STARTCHAR logicalnot
ENCODING 172
SWIDTH 584 0
DWIDTH 8 0
BBX 6 4 1 1
BITMAP
FC
04
04
04
ENDCHAR

STARTCHAR hyphen
ENCODING 173
SWIDTH 323 0
DWIDTH 4 0
BBX 3 1 0 2
BITMAP
E0
ENDCHAR

STARTCHAR registered
ENCODING 174
SWIDTH 740 0
DWIDTH 10 0
BBX 9 9 0 0
BITMAP
3E00
4100
BC80
A280
BC80
A280
A280
4100
3E00
ENDCHAR

STARTCHAR macron
ENCODING 175
SWIDTH 333 0
DWIDTH 4 0
BBX 4 1 0 7
BITMAP
F0
ENDCHAR

STARTCHAR degree
ENCODING 176
SWIDTH 396 0
DWIDTH 5 0
BBX 4 4 0 5
BITMAP
60
90
90
60
ENDCHAR

STARTCHAR plusminus
ENCODING 177
SWIDTH 584 0
DWIDTH 8 0
BBX 5 7 1 0
BITMAP
20
20
F8
20
20
00
F8
ENDCHAR

STARTCHAR twosuperior
ENCODING 178
SWIDTH 323 0
DWIDTH 4 0
BBX 3 5 0 4
BITMAP
40
A0
20
40
E0
ENDCHAR

STARTCHAR threesuperior
ENCODING 179
SWIDTH 323 0
DWIDTH 4 0
BBX 3 5 0 4
BITMAP
C0
20
40
20
C0
ENDCHAR

STARTCHAR acute
ENCODING 180
SWIDTH 333 0
DWIDTH 4 0
BBX 2 2 1 8
BITMAP
40
80
ENDCHAR

STARTCHAR mu
ENCODING 181
SWIDTH 552 0
DWIDTH 7 0
BBX 5 9 1 -3
BITMAP
88
88
88
88
98
E8
80
80
80
ENDCHAR

STARTCHAR paragraph
ENCODING 182
SWIDTH 542 0
DWIDTH 7 0
BBX 7 12 0 -3
BITMAP
3E
74
F4
F4
74
34
14
14
14
14
14
14
ENDCHAR

STARTCHAR periodcentered
ENCODING 183
SWIDTH 260 0
DWIDTH 3 0
BBX 1 2 1 4
BITMAP
80
80
ENDCHAR

STARTCHAR cedilla
ENCODING 184
SWIDTH 333 0
DWIDTH 4 0
BBX 3 3 0 -3
BITMAP
40
20
C0
ENDCHAR

STARTCHAR onesuperior
ENCODING 185
SWIDTH 323 0
DWIDTH 4 0
BBX 1 5 1 4
BITMAP
80
80
80
80
80
ENDCHAR

STARTCHAR ordmasculine
ENCODING 186
SWIDTH 365 0
DWIDTH 5 0
BBX 4 5 0 4
BITMAP
60
90
90
90
60
ENDCHAR

STARTCHAR guillemotright
ENCODING 187
SWIDTH 490 0
DWIDTH 6 0
BBX 6 7 0 0
BITMAP
A0
50
28
14
28
50
A0
ENDCHAR

STARTCHAR onequarter
ENCODING 188
SWIDTH 844 0
DWIDTH 11 0
BBX 9 9 1 0
BITMAP
4100
4200
4400
4800
5100
1300
2500
4F80
8100
ENDCHAR

STARTCHAR onehalf
ENCODING 189
SWIDTH 844 0
DWIDTH 11 0
BBX 8 9 1 0
BITMAP
41
42
44
48
52
15
21
42
87
ENDCHAR

STARTCHAR threequarters
ENCODING 190
SWIDTH 844 0
DWIDTH 11 0
BBX 9 9 1 0
BITMAP
C100
2200
4400
2800
D100
1300
2500
4F80
8100
ENDCHAR

STARTCHAR questiondown
ENCODING 191
SWIDTH 333 0
DWIDTH 4 0
BBX 3 9 1 -3
BITMAP
40
00
40
40
40
80
80
A0
40
ENDCHAR

STARTCHAR Agrave
ENCODING 192
SWIDTH 667 0
DWIDTH 9 0
BBX 9 12 0 0
BITMAP
1000
0800
0000
0800
0800
1400
1400
2200
3E00
4100
4100
8080
ENDCHAR

STARTCHAR Aacute
ENCODING 193
SWIDTH 667 0
DWIDTH 9 0
BBX 9 12 0 0
BITMAP
0400
0800
0000
0800
0800
1400
1400
2200
3E00
4100
4100
8080
ENDCHAR

STARTCHAR Acircumflex
ENCODING 194
SWIDTH 667 0
DWIDTH 9 0
BBX 9 12 0 0
BITMAP
0800
1400
0000
0800
0800
1400
1400
2200
3E00
4100
4100
8080
ENDCHAR

STARTCHAR Atilde
ENCODING 195
SWIDTH 667 0
DWIDTH 9 0
BBX 9 12 0 0
BITMAP
1200
2C00
0000
0800
0800
1400
1400
2200
3E00
4100
4100
8080
ENDCHAR

STARTCHAR Adieresis
ENCODING 196
SWIDTH 667 0
DWIDTH 9 0
BBX 9 11 0 0
BITMAP
1400
0000
0800
0800
1400
1400
2200
3E00
4100
4100
8080
ENDCHAR

STARTCHAR Aring
ENCODING 197
SWIDTH 667 0
DWIDTH 9 0
BBX 9 12 0 0
BITMAP
0800
1400
0800
0000
0800
1400
1400
2200
3E00
4100
4100
8080
ENDCHAR

STARTCHAR AE
ENCODING 198
SWIDTH 896 0
DWIDTH 11 0
BBX 9 9 1 0
BITMAP
0F80
1400
1400
2400
3F80
4400
4400
8400
8780
ENDCHAR

STARTCHAR Ccedilla
ENCODING 199
SWIDTH 708 0
DWIDTH 9 0
BBX 6 12 1 -3
BITMAP
38
44
80
80
80
80
80
44
38
10
08
30
ENDCHAR

STARTCHAR Egrave
ENCODING 200
SWIDTH 500 0
DWIDTH 7 0
BBX 5 12 1 0
BITMAP
40
20
00
F8
80
80
80
F8
80
80
80
F8
ENDCHAR

STARTCHAR Eacute
ENCODING 201
SWIDTH 500 0
DWIDTH 7 0
BBX 5 12 1 0
BITMAP
10
20
00
F8
80
80
80
F8
80
80
80
F8
ENDCHAR

STARTCHAR Ecircumflex
ENCODING 202
SWIDTH 500 0
DWIDTH 7 0
BBX 5 12 1 0
BITMAP
20
50
00
F8
80
80
80
F8
80
80
80
F8
ENDCHAR

STARTCHAR Edieresis
ENCODING 203
SWIDTH 500 0
DWIDTH 7 0
BBX 5 11 1 0
BITMAP
50
00
F8
80
80
80
F8
80
80
80
F8
ENDCHAR

STARTCHAR Igrave
ENCODING 204
SWIDTH 250 0
DWIDTH 3 0
BBX 2 12 0 0
BITMAP
80
40
00
40
40
40
40
40
40
40
40
40
ENDCHAR

STARTCHAR Iacute
ENCODING 205
SWIDTH 250 0
DWIDTH 3 0
BBX 2 12 1 0
BITMAP
40
80
00
80
80
80
80
80
80
80
80
80
ENDCHAR

STARTCHAR Icircumflex
ENCODING 206
SWIDTH 250 0
DWIDTH 3 0
BBX 3 12 0 0
BITMAP
40
A0
00
40
40
40
40
40
40
40
40
40
ENDCHAR

STARTCHAR Idieresis
ENCODING 207
SWIDTH 250 0
DWIDTH 3 0
BBX 3 11 0 0
BITMAP
A0
00
40
40
40
40
40
40
40
40
40
ENDCHAR

STARTCHAR Eth
ENCODING 208
SWIDTH 750 0
DWIDTH 10 0
BBX 8 9 0 0
BITMAP
7C
42
41
41
F9
41
41
42
7C
ENDCHAR

STARTCHAR Ntilde
ENCODING 209
SWIDTH 781 0
DWIDTH 10 0
BBX 7 12 1 0
BITMAP
32
4C
00
82
C2
A2
A2
92
92
8A
86
82
ENDCHAR

STARTCHAR Ograve
ENCODING 210
SWIDTH 823 0
DWIDTH 11 0
BBX 8 12 1 0
BITMAP
10
08
00
3C
42
81
81
81
81
81
42
3C
ENDCHAR

STARTCHAR Oacute
ENCODING 211
SWIDTH 823 0
DWIDTH 11 0
BBX 8 12 1 0
BITMAP
08
10
00
3C
42
81
81
81
81
81
42
3C
ENDCHAR

STARTCHAR Ocircumflex
ENCODING 212
SWIDTH 823 0
DWIDTH 11 0
BBX 8 12 1 0
BITMAP
08
14
00
3C
42
81
81
81
81
81
42
3C
ENDCHAR

STARTCHAR Otilde
ENCODING 213
SWIDTH 823 0
DWIDTH 11 0
BBX 8 12 1 0
BITMAP
32
4C
00
3C
42
81
81
81
81
81
42
3C
ENDCHAR

STARTCHAR Odieresis
ENCODING 214
SWIDTH 823 0
DWIDTH 11 0
BBX 8 11 1 0
BITMAP
24
00
3C
42
81
81
81
81
81
42
3C
ENDCHAR

STARTCHAR multiply
ENCODING 215
SWIDTH 584 0
DWIDTH 9 0
BBX 5 5 2 2
BITMAP
88
50
20
50
88
ENDCHAR

STARTCHAR Oslash
ENCODING 216
SWIDTH 823 0
DWIDTH 11 0
BBX 8 10 1 0
BITMAP
01
3E
42
85
89
91
91
A1
42
BC
ENDCHAR

STARTCHAR Ugrave
ENCODING 217
SWIDTH 708 0
DWIDTH 9 0
BBX 6 12 1 0
BITMAP
20
10
00
84
84
84
84
84
84
84
84
78
ENDCHAR

STARTCHAR Uacute
ENCODING 218
SWIDTH 708 0
DWIDTH 9 0
BBX 6 12 1 0
BITMAP
10
20
00
84
84
84
84
84
84
84
84
78
ENDCHAR

STARTCHAR Ucircumflex
ENCODING 219
SWIDTH 708 0
DWIDTH 9 0
BBX 6 12 1 0
BITMAP
10
28
00
84
84
84
84
84
84
84
84
78
ENDCHAR

STARTCHAR Udieresis
ENCODING 220
SWIDTH 708 0
DWIDTH 9 0
BBX 6 11 1 0
BITMAP
48
00
84
84
84
84
84
84
84
84
78
ENDCHAR

STARTCHAR Yacute
ENCODING 221
SWIDTH 604 0
DWIDTH 8 0
BBX 7 12 0 0
BITMAP
08
10
00
82
44
28
10
10
10
10
10
10
ENDCHAR

STARTCHAR Thorn
ENCODING 222
SWIDTH 510 0
DWIDTH 7 0
BBX 5 9 1 0
BITMAP
80
80
F0
88
88
88
F0
80
80
ENDCHAR

STARTCHAR germandbls
ENCODING 223
SWIDTH 500 0
DWIDTH 7 0
BBX 5 9 1 0
BITMAP
60
90
90
90
E0
90
88
88
B0
ENDCHAR

STARTCHAR agrave
ENCODING 224
SWIDTH 427 0
DWIDTH 6 0
BBX 5 9 0 0
BITMAP
40
20
00
60
10
70
90
90
68
ENDCHAR

STARTCHAR aacute
ENCODING 225
SWIDTH 427 0
DWIDTH 6 0
BBX 5 9 0 0
BITMAP
10
20
00
60
10
70
90
90
68
ENDCHAR

STARTCHAR acircumflex
ENCODING 226
SWIDTH 427 0
DWIDTH 6 0
BBX 5 9 0 0
BITMAP
20
50
00
60
10
70
90
90
68
ENDCHAR

STARTCHAR atilde
ENCODING 227
SWIDTH 427 0
DWIDTH 6 0
BBX 5 9 0 0
BITMAP
50
A0
00
60
10
70
90
90
68
ENDCHAR

STARTCHAR adieresis
ENCODING 228
SWIDTH 427 0
DWIDTH 6 0
BBX 5 8 0 0
BITMAP
50
00
60
10
70
90
90
68
ENDCHAR

STARTCHAR aring
ENCODING 229
SWIDTH 427 0
DWIDTH 6 0
BBX 5 10 0 0
BITMAP
20
50
20
00
60
10
70
90
90
68
ENDCHAR

STARTCHAR ae
ENCODING 230
SWIDTH 667 0
DWIDTH 9 0
BBX 7 6 1 0
BITMAP
6C
12
7E
90
92
6C
ENDCHAR

STARTCHAR ccedilla
ENCODING 231
SWIDTH 438 0
DWIDTH 5 0
BBX 5 9 0 -3
BITMAP
70
88
80
80
88
70
20
10
60
ENDCHAR

STARTCHAR egrave
ENCODING 232
SWIDTH 479 0
DWIDTH 6 0
BBX 5 9 0 0
BITMAP
40
20
00
70
88
F8
80
88
70
ENDCHAR

STARTCHAR eacute
ENCODING 233
SWIDTH 479 0
DWIDTH 6 0
BBX 5 9 0 0
BITMAP
10
20
00
70
88
F8
80
88
70
ENDCHAR

STARTCHAR ecircumflex
ENCODING 234
SWIDTH 479 0
DWIDTH 6 0
BBX 5 9 0 0
BITMAP
20
50
00
70
88
F8
80
88
70
ENDCHAR

STARTCHAR edieresis
ENCODING 235
SWIDTH 479 0
DWIDTH 6 0
BBX 5 8 0 0
BITMAP
50
00
70
88
F8
80
88
70
ENDCHAR

STARTCHAR igrave
ENCODING 236
SWIDTH 219 0
DWIDTH 2 0
BBX 2 9 0 0
BITMAP
80
40
00
80
80
80
80
80
80
ENDCHAR

STARTCHAR iacute
ENCODING 237
SWIDTH 219 0
DWIDTH 2 0
BBX 2 9 0 0
BITMAP
40
80
00
80
80
80
80
80
80
ENDCHAR

STARTCHAR icircumflex
ENCODING 238
SWIDTH 219 0
DWIDTH 2 0
BBX 3 9 -1 0
BITMAP
40
A0
00
40
40
40
40
40
40
ENDCHAR

STARTCHAR idieresis
ENCODING 239
SWIDTH 219 0
DWIDTH 2 0
BBX 3 8 -1 0
BITMAP
A0
00
40
40
40
40
40
40
ENDCHAR

STARTCHAR eth
ENCODING 240
SWIDTH 563 0
DWIDTH 7 0
BBX 5 10 1 0
BITMAP
50
20
50
08
78
88
88
88
88
70
ENDCHAR

STARTCHAR ntilde
ENCODING 241
SWIDTH 500 0
DWIDTH 6 0
BBX 6 9 0 0
BITMAP
64
98
00
B0
C8
88
88
88
88
ENDCHAR

STARTCHAR ograve
ENCODING 242
SWIDTH 552 0
DWIDTH 7 0
BBX 5 9 1 0
BITMAP
40
20
00
70
88
88
88
88
70
ENDCHAR

STARTCHAR oacute
ENCODING 243
SWIDTH 552 0
DWIDTH 7 0
BBX 5 9 1 0
BITMAP
10
20
00
70
88
88
88
88
70
ENDCHAR

STARTCHAR ocircumflex
ENCODING 244
SWIDTH 552 0
DWIDTH 7 0
BBX 5 9 1 0
BITMAP
20
50
00
70
88
88
88
88
70
ENDCHAR

STARTCHAR otilde
ENCODING 245
SWIDTH 552 0
DWIDTH 7 0
BBX 5 9 1 0
BITMAP
48
B0
00
70
88
88
88
88
70
ENDCHAR

STARTCHAR odieresis
ENCODING 246
SWIDTH 552 0
DWIDTH 7 0
BBX 5 8 1 0
BITMAP
50
00
70
88
88
88
88
70
ENDCHAR

STARTCHAR divide
ENCODING 247
SWIDTH 584 0
DWIDTH 9 0
BBX 7 5 1 2
BITMAP
10
00
FE
00
10
ENDCHAR

STARTCHAR oslash
ENCODING 248
SWIDTH 552 0
DWIDTH 7 0
BBX 5 8 1 -1
BITMAP
08
70
98
A8
A8
C8
70
80
ENDCHAR

STARTCHAR ugrave
ENCODING 249
SWIDTH 500 0
DWIDTH 6 0
BBX 5 9 0 0
BITMAP
40
20
00
88
88
88
88
98
68
ENDCHAR

STARTCHAR uacute
ENCODING 250
SWIDTH 500 0
DWIDTH 6 0
BBX 5 9 0 0
BITMAP
10
20
00
88
88
88
88
98
68
ENDCHAR

STARTCHAR ucircumflex
ENCODING 251
SWIDTH 500 0
DWIDTH 6 0
BBX 5 9 0 0
BITMAP
20
50
00
88
88
88
88
98
68
ENDCHAR

STARTCHAR udieresis
ENCODING 252
SWIDTH 500 0
DWIDTH 6 0
BBX 5 8 0 0
BITMAP
50
00
88
88
88
88
98
68
ENDCHAR

STARTCHAR yacute
ENCODING 253
SWIDTH 438 0
DWIDTH 5 0
BBX 5 12 0 -3
BITMAP
10
20
00
88
88
50
50
20
20
20
40
40
ENDCHAR

STARTCHAR thorn
ENCODING 254
SWIDTH 500 0
DWIDTH 7 0
BBX 5 12 1 -3
BITMAP
80
80
80
F0
88
88
88
88
F0
80
80
80
ENDCHAR

STARTCHAR ydieresis
ENCODING 255
SWIDTH 438 0
DWIDTH 5 0
BBX 5 11 0 -3
BITMAP
50
00
88
88
50
50
20
20
20
40
40
ENDCHAR
ENDFONT
